<svg width="44" height="33" viewBox="0 0 44 33" fill="none" xmlns="http://www.w3.org/2000/svg">
    <path fill-rule="evenodd" clip-rule="evenodd"
        d="M21.8072 24.1718C21.8163 12.6445 11.3214 3.96243 0 6.13143C2.00594 8.78496 3.22633 11.9485 3.52215 15.2617L3.56196 15.7076C3.71632 17.4364 4.10295 19.1366 4.7114 20.7622L5.25247 22.2078C7.29188 27.6565 12.2344 31.4857 18.0199 32.0991L21.8006 32.5V32.4999C18.5449 25.8121 14.3931 19.5991 9.45977 14.0324L7.10579 11.3761L13.9652 16.5497C18.4753 19.9515 21.317 25.1036 21.802 30.7106L21.8072 24.1718Z"
        fill="url(#paint0_linear_68_118)" />
    <path fill-rule="evenodd" clip-rule="evenodd"
        d="M21.7941 24.1718C21.785 12.6445 32.2799 3.96243 43.6013 6.13143C41.5954 8.78496 40.375 11.9485 40.0792 15.2617L40.0394 15.7076C39.885 17.4364 39.4984 19.1366 38.8899 20.7622L38.3489 22.2078C36.3094 27.6565 31.3669 31.4857 25.5815 32.0991L21.8007 32.5V32.4999C25.0564 25.8121 29.2082 19.5991 34.1415 14.0324L36.4955 11.3761L29.6362 16.5497C25.126 19.9515 22.2843 25.1035 21.7993 30.7106L21.7941 24.1718Z"
        fill="url(#paint1_linear_68_118)" />
    <path fill-rule="evenodd" clip-rule="evenodd"
        d="M25.9806 3.06048L21.8489 0.5V5.40679C21.8569 5.4065 21.8649 5.40635 21.873 5.40635C22.2334 5.40635 22.5256 5.69852 22.5256 6.05892V15.0003C23.9496 12.6498 25.7362 10.5355 27.8216 8.73695L28.7129 7.96828C28.7129 5.96971 27.6794 4.11326 25.9806 3.06048Z"
        fill="url(#paint2_linear_68_118)" />
    <path fill-rule="evenodd" clip-rule="evenodd"
        d="M21.8489 0.5L17.7172 3.06048C16.0184 4.11326 14.9849 5.96971 14.9849 7.96828L15.8761 8.73695C17.9615 10.5355 19.7481 12.6497 21.1722 15.0001V9.78755C21.1331 9.76286 21.0962 9.7335 21.0622 9.69947L19.7847 8.422C19.5365 8.17384 19.5365 7.7715 19.7847 7.52334C20.0329 7.27518 20.4352 7.27518 20.6834 7.52334L21.1722 8.01213V6.05892C21.1722 5.69852 21.4643 5.40635 21.8247 5.40635C21.8328 5.40635 21.8409 5.4065 21.8489 5.40679V0.5Z"
        fill="url(#paint3_linear_68_118)" />
    <defs>
        <linearGradient id="paint0_linear_68_118" x1="10.9036" y1="5.79779" x2="10.9036" y2="32.5"
            gradientUnits="userSpaceOnUse">
            <stop stop-color="#009E3D" />
            <stop offset="1" stop-color="#006227" />
        </linearGradient>
        <linearGradient id="paint1_linear_68_118" x1="32.6977" y1="5.79779" x2="32.6977" y2="32.5"
            gradientUnits="userSpaceOnUse">
            <stop stop-color="#009E3D" />
            <stop offset="1" stop-color="#006227" />
        </linearGradient>
        <linearGradient id="paint2_linear_68_118" x1="25.2809" y1="0.5" x2="25.2809" y2="15.0002"
            gradientUnits="userSpaceOnUse">
            <stop stop-color="#009E3D" />
            <stop offset="1" stop-color="#006227" />
        </linearGradient>
        <linearGradient id="paint3_linear_68_118" x1="18.4169" y1="0.5" x2="18.4169" y2="15.0002"
            gradientUnits="userSpaceOnUse">
            <stop stop-color="#009E3D" />
            <stop offset="1" stop-color="#006227" />
        </linearGradient>
    </defs>
</svg>